<svg width="512" height="512" viewBox="0 0 512 512" fill="none" xmlns="http://www.w3.org/2000/svg">
<rect width="512" height="512" rx="67" fill="black"/>
<path d="M353.027 350.535C353.613 351.707 353.906 352.879 353.906 354.051C354.102 355.418 354.199 356.883 354.199 358.445C350.879 358.25 348.73 357.957 347.754 357.566C346.777 357.176 345.801 357.469 344.824 358.445C342.676 357.859 340.918 357.176 339.551 356.395C338.77 356.59 338.086 356.883 337.5 357.273C337.109 357.664 336.426 358.055 335.449 358.445C333.105 358.055 331.543 357.566 330.762 356.98C330.176 357.371 329.688 357.762 329.297 358.152C328.906 358.543 328.223 358.738 327.246 358.738C326.66 356.98 326.66 355.906 327.246 355.516C327.832 355.32 328.32 354.93 328.711 354.344C326.953 354.539 325.586 355.516 324.609 357.273C322.266 358.445 320.898 358.836 320.508 358.445C320.312 358.055 320.02 357.859 319.629 357.859C317.871 359.031 316.602 359.422 315.82 359.031C315.43 358.055 315.234 357.078 315.234 356.102C315.234 355.32 315.43 354.539 315.82 353.758C314.258 351.219 313.672 349.559 314.062 348.777C314.648 347.801 315.039 346.727 315.234 345.555C315.039 344.969 314.746 344.578 314.355 344.383C313.965 343.992 313.965 343.309 314.355 342.332C312.598 340.965 311.914 339.988 312.305 339.402C312.695 338.816 312.988 338.133 313.184 337.352C313.184 335.789 313.086 334.617 312.891 333.836C313.477 331.688 313.574 330.516 313.184 330.32C312.988 329.93 312.891 329.539 312.891 329.148C313.281 328.562 313.477 327.781 313.477 326.805C313.477 325.828 313.672 325.047 314.062 324.461C313.086 321.727 312.695 319.676 312.891 318.309C313.086 316.746 312.988 315.574 312.598 314.793C312.402 312.645 312.109 311.473 311.719 311.277C311.523 311.082 311.328 310.789 311.133 310.398C311.328 309.227 311.328 308.25 311.133 307.469C311.133 306.688 311.23 305.809 311.426 304.832C310.254 302.684 309.766 301.219 309.961 300.438C310.156 299.656 310.059 298.875 309.668 298.094C308.301 294.188 308.105 291.453 309.082 289.891C308.301 289.109 308.105 287.645 308.496 285.496C307.715 283.543 307.227 282.371 307.031 281.98C306.836 281.59 306.641 281.199 306.445 280.809C306.445 279.637 306.836 278.27 307.617 276.707C306.25 273.777 305.957 271.629 306.738 270.262C306.738 268.504 306.152 267.039 304.98 265.867C305.176 263.523 305.176 261.863 304.98 260.887C305.566 259.129 305.762 257.957 305.566 257.371C305.566 256.785 305.664 256.297 305.859 255.906C305.078 253.758 304.883 252.293 305.273 251.512C304.102 249.754 303.613 248.777 303.809 248.582C304.004 248.191 304.102 247.703 304.102 247.117C303.711 246.727 303.125 246.629 302.344 246.824C301.758 246.824 301.27 246.531 300.879 245.945C300.684 244.969 300.781 244.188 301.172 243.602C301.758 243.016 301.855 242.234 301.465 241.258C302.441 239.109 302.93 237.84 302.93 237.449C303.125 236.863 303.32 236.375 303.516 235.984C302.344 233.641 301.953 232.273 302.344 231.883C301.758 231.883 301.074 231.883 300.293 231.883C299.512 231.688 299.023 231.297 298.828 230.711C298.242 231.102 297.852 231.785 297.656 232.762C297.461 233.543 297.168 234.227 296.777 234.812C296.973 235.984 296.973 237.156 296.777 238.328C296.582 239.305 295.996 239.988 295.02 240.379C295.605 241.551 295.703 243.016 295.312 244.773C295.117 246.336 294.531 247.508 293.555 248.289C293.945 249.852 293.75 251.219 292.969 252.391C292.188 253.367 291.504 254.344 290.918 255.32C290.918 255.711 290.918 256.199 290.918 256.785C291.113 257.371 291.113 257.957 290.918 258.543C290.723 262.059 290.137 264.5 289.16 265.867C288.379 267.039 287.695 268.406 287.109 269.969C287.109 272.508 286.523 274.168 285.352 274.949C285.742 275.926 285.742 277 285.352 278.172C285.156 279.344 284.668 280.125 283.887 280.516C283.496 281.883 283.203 283.055 283.008 284.031C282.812 285.008 282.52 285.789 282.129 286.375C282.129 288.914 281.445 290.574 280.078 291.355C280.078 292.527 279.785 293.406 279.199 293.992C278.613 294.578 278.223 295.555 278.027 296.922C278.809 299.656 278.809 301.512 278.027 302.488C277.441 303.465 276.66 304.344 275.684 305.125C275.684 306.688 275.293 307.957 274.512 308.934C273.926 309.715 273.438 310.691 273.047 311.863C273.242 314.207 273.242 315.867 273.047 316.844C272.852 317.82 272.363 318.602 271.582 319.188C271.191 320.945 270.801 322.215 270.41 322.996C270.02 323.582 269.629 324.07 269.238 324.461C269.043 326.805 268.75 328.172 268.359 328.562C268.164 328.758 268.066 329.051 268.066 329.441C266.113 331.199 265.137 332.566 265.137 333.543C265.332 334.324 265.43 335.203 265.43 336.18C265.039 336.961 264.551 337.645 263.965 338.23C263.574 338.816 263.184 339.402 262.793 339.988C262.793 341.941 262.5 343.797 261.914 345.555C261.328 347.117 261.23 348.777 261.621 350.535C261.23 351.512 260.84 352.586 260.449 353.758C260.254 354.93 259.863 356.004 259.277 356.98C259.277 357.957 259.18 358.836 258.984 359.617C258.984 360.594 258.594 361.375 257.812 361.961C256.641 359.617 256.055 357.762 256.055 356.395C255.078 354.637 254.395 352.684 254.004 350.535C253.613 348.387 252.734 346.531 251.367 344.969C251.172 343.016 250.781 341.941 250.195 341.746C249.805 341.551 249.414 341.16 249.023 340.574C249.023 338.816 248.828 337.742 248.438 337.352C248.242 336.961 248.047 336.473 247.852 335.887V331.492C246.875 328.953 246.191 327.293 245.801 326.512C245.605 325.535 245.215 324.559 244.629 323.582C245.02 321.434 245.02 320.262 244.629 320.066C244.238 319.871 243.848 319.578 243.457 319.188C244.043 316.062 243.75 313.719 242.578 312.156C241.602 310.398 241.309 308.055 241.699 305.125C241.309 304.734 240.723 304.441 239.941 304.246C239.16 304.051 238.574 303.66 238.184 303.074C236.816 301.316 236.23 300.242 236.426 299.852C236.816 299.461 237.109 298.875 237.305 298.094C236.914 297.117 236.426 296.336 235.84 295.75C235.449 295.164 235.059 294.383 234.668 293.406C234.668 292.234 234.473 291.258 234.082 290.477C233.691 289.695 233.398 288.816 233.203 287.84C233.203 285.301 233.594 283.543 234.375 282.566C233.398 282.566 232.422 282.469 231.445 282.273C230.469 282.078 229.785 281.688 229.395 281.102C229.199 280.125 229.199 279.441 229.395 279.051C229.59 278.66 229.785 278.172 229.98 277.586C229.98 276.805 229.883 276.023 229.688 275.242C229.688 274.461 229.883 273.777 230.273 273.191C228.125 271.434 227.246 269.969 227.637 268.797C227.441 268.016 226.855 267.82 225.879 268.211C225.098 268.406 224.609 268.016 224.414 267.039C225.391 264.891 225.684 263.523 225.293 262.938C225.098 262.156 225.195 261.277 225.586 260.301C225.391 259.715 225.098 259.227 224.707 258.836C224.316 258.445 224.316 257.664 224.707 256.492C222.754 255.516 221.777 254.734 221.777 254.148C221.973 253.562 222.266 253.074 222.656 252.684C222.07 250.926 221.68 249.754 221.484 249.168C221.484 248.387 221.582 247.605 221.777 246.824C221.387 245.457 220.898 244.383 220.312 243.602C219.727 242.82 219.336 241.746 219.141 240.379C217.969 237.84 217.188 236.082 216.797 235.105C215.43 234.715 214.648 233.836 214.453 232.469C214.258 231.102 214.355 229.637 214.746 228.074C212.793 225.926 211.914 224.559 212.109 223.973C212.5 223.387 212.5 222.703 212.109 221.922C211.328 223.484 210.84 224.461 210.645 224.852C210.645 225.242 210.645 225.633 210.645 226.023C210.84 226.805 211.035 227.391 211.23 227.781C211.621 228.172 211.816 228.855 211.816 229.832C211.621 230.809 211.328 231.688 210.938 232.469C210.742 233.25 210.547 234.129 210.352 235.105C210.938 237.84 210.84 239.891 210.059 241.258C209.473 242.43 209.082 243.797 208.887 245.359C208.691 246.531 208.594 247.703 208.594 248.875C208.789 250.047 208.691 251.316 208.301 252.684C207.52 254.637 206.25 256.785 204.492 259.129C204.297 260.105 204.102 260.887 203.906 261.473C203.906 262.059 204.004 262.84 204.199 263.816C204.785 266.16 204.883 267.625 204.492 268.211C204.297 268.797 204.102 269.578 203.906 270.555C204.102 273.289 203.906 275.047 203.32 275.828C202.93 276.609 202.637 277.586 202.441 278.758C202.637 280.125 202.637 281.492 202.441 282.859C202.441 284.227 202.148 285.301 201.562 286.082C201.758 287.645 201.758 288.621 201.562 289.012C201.367 289.402 201.172 289.793 200.977 290.184C201.562 293.113 201.367 295.359 200.391 296.922C199.609 298.484 199.707 300.047 200.684 301.609C200.293 303.367 200 305.223 199.805 307.176C199.805 308.934 199.512 310.594 198.926 312.156C199.512 313.914 199.219 315.574 198.047 317.137C198.438 318.309 198.633 319.773 198.633 321.531C198.828 323.094 198.34 324.168 197.168 324.754C197.559 325.926 197.559 327 197.168 327.977C196.777 328.953 196.484 330.027 196.289 331.199C196.68 333.543 196.68 334.91 196.289 335.301C196.094 335.691 195.996 336.277 195.996 337.059C196.387 339.207 196.289 340.281 195.703 340.281C195.117 340.086 194.727 340.184 194.531 340.574C195.312 342.723 195.508 344.09 195.117 344.676C194.727 345.066 194.727 345.848 195.117 347.02C193.555 348.582 193.066 349.461 193.652 349.656C194.238 349.852 194.434 350.242 194.238 350.828C193.262 352.391 192.676 353.465 192.48 354.051C192.48 354.637 192.48 355.32 192.48 356.102C190.527 357.664 189.16 359.715 188.379 362.254C187.598 362.645 186.816 363.035 186.035 363.426C185.449 363.816 184.863 364.207 184.277 364.598C182.715 364.598 181.543 364.5 180.762 364.305C179.785 364.891 178.711 365.379 177.539 365.77C176.367 366.16 175.293 366.746 174.316 367.527C173.535 367.332 172.852 367.137 172.266 366.941C171.875 366.746 171.289 366.551 170.508 366.355C169.531 367.137 169.043 368.992 169.043 371.922C167.871 373.094 166.992 373.875 166.406 374.266C164.453 375.633 163.281 376.219 162.891 376.023C161.719 377.391 160.938 378.074 160.547 378.074C160.156 378.074 159.766 378.172 159.375 378.367C158.789 379.734 158.496 380.711 158.496 381.297C158.691 382.078 158.594 382.859 158.203 383.641C157.031 384.031 156.055 384.422 155.273 384.812C154.492 385.398 153.418 385.691 152.051 385.691C150.488 387.84 149.121 389.305 147.949 390.086C146.191 390.281 145.117 390.77 144.727 391.551C144.141 392.332 143.164 392.723 141.797 392.723C141.211 393.113 140.82 393.797 140.625 394.773C140.43 395.75 140.137 396.629 139.746 397.41C137.402 397.41 135.449 397.801 133.887 398.582C133.301 398.973 132.812 399.461 132.422 400.047C131.836 400.633 131.152 401.219 130.371 401.805C129.785 402.195 129.102 402.586 128.32 402.977C127.344 403.562 126.562 403.367 125.977 402.391C126.172 400.828 126.758 399.656 127.734 398.875C128.516 398.289 129.199 397.508 129.785 396.531C133.105 393.406 135.352 390.574 136.523 388.035C138.086 386.277 139.258 384.91 140.039 383.934C140.625 383.152 141.504 382.566 142.676 382.176C143.652 380.027 143.945 378.855 143.555 378.66C143.164 378.465 143.066 378.172 143.262 377.781C144.043 375.828 144.824 374.559 145.605 373.973C146.191 373.582 146.875 373.191 147.656 372.801C148.633 370.652 149.902 368.309 151.465 365.77C151.66 363.816 152.148 362.254 152.93 361.082C153.711 359.91 154.492 358.543 155.273 356.98C154.688 354.246 154.785 352.098 155.566 350.535C156.152 349.559 156.641 348.777 157.031 348.191C157.422 347.41 158.105 346.824 159.082 346.434C159.082 343.895 159.277 341.844 159.668 340.281C160.059 338.719 160.547 337.156 161.133 335.594C160.352 333.25 159.766 332.078 159.375 332.078C159.18 332.078 159.082 331.883 159.082 331.492C159.082 330.906 159.18 330.32 159.375 329.734C159.766 329.148 160.156 328.66 160.547 328.27C160.938 327.684 161.23 327.195 161.426 326.805C161.621 326.219 161.816 325.633 162.012 325.047C162.012 323.484 161.719 322.215 161.133 321.238C161.328 319.285 161.914 317.527 162.891 315.965C162.695 313.816 162.793 312.059 163.184 310.691C163.77 309.129 164.453 307.566 165.234 306.004C164.453 303.855 164.453 302.391 165.234 301.609C165.234 299.266 165.527 297.605 166.113 296.629C166.895 295.457 167.48 294.285 167.871 293.113C167.09 291.16 166.895 290.086 167.285 289.891C167.676 289.695 167.969 289.402 168.164 289.012C167.188 286.473 166.797 284.422 166.992 282.859C167.188 281.297 167.48 280.027 167.871 279.051C168.066 277.488 168.359 276.512 168.75 276.121C169.141 275.73 169.434 275.34 169.629 274.949C169.629 272.996 169.727 271.727 169.922 271.141C169.727 268.797 169.727 267.43 169.922 267.039C170.312 266.648 170.605 266.062 170.801 265.281C170.02 263.328 170.117 261.57 171.094 260.008C170.898 258.055 170.898 256.883 171.094 256.492C171.289 255.906 171.484 255.32 171.68 254.734C171.289 253.367 171.387 252.293 171.973 251.512C172.559 250.73 172.852 249.656 172.852 248.289C173.242 247.508 173.633 246.824 174.023 246.238C174.609 245.652 175.098 244.871 175.488 243.895C175.098 243.113 174.512 242.625 173.73 242.43C173.145 242.234 172.559 241.941 171.973 241.551C170.996 241.941 169.922 242.137 168.75 242.137C167.773 241.941 167.188 241.355 166.992 240.379C167.773 239.207 169.434 238.621 171.973 238.621C172.949 237.254 173.633 235.594 174.023 233.641C174.414 231.688 175 229.93 175.781 228.367C175.977 227.391 175.977 226.512 175.781 225.73C175.781 224.949 175.781 224.07 175.781 223.094C176.367 221.727 176.562 221.043 176.367 221.043C176.172 220.848 176.172 220.457 176.367 219.871C177.734 215.77 178.223 212.938 177.832 211.375C177.441 210.398 176.953 209.617 176.367 209.031C175.781 208.445 175.586 207.371 175.781 205.809C176.367 204.246 176.562 203.27 176.367 202.879C176.172 202.488 176.172 202.098 176.367 201.707C176.758 200.73 177.051 199.754 177.246 198.777C177.637 197.605 178.125 196.531 178.711 195.555C178.125 193.797 177.832 192.43 177.832 191.453C178.223 190.477 178.809 189.891 179.59 189.695C180.371 189.305 181.055 188.621 181.641 187.645C181.25 187.059 180.664 186.668 179.883 186.473C179.297 186.277 179.004 185.691 179.004 184.715C179.199 183.738 179.59 183.152 180.176 182.957C180.762 182.566 181.25 182.078 181.641 181.492C180.859 179.344 180.762 177.293 181.348 175.34C182.129 173.387 182.812 171.434 183.398 169.48C183.398 168.504 183.203 167.527 182.812 166.551C182.422 165.379 182.324 164.305 182.52 163.328C181.543 162.938 180.957 162.254 180.762 161.277C180.762 160.105 181.055 159.031 181.641 158.055C179.492 156.883 178.516 155.809 178.711 154.832C178.906 153.855 179.102 152.879 179.297 151.902C179.102 151.316 178.711 150.828 178.125 150.438C177.539 150.047 176.953 149.754 176.367 149.559C175.781 149.168 175.293 148.777 174.902 148.387C174.512 147.801 174.512 147.02 174.902 146.043C173.926 146.043 172.949 146.238 171.973 146.629C170.996 147.02 170.312 146.434 169.922 144.871C170.117 143.309 169.629 142.43 168.457 142.234C167.285 142.039 166.895 141.355 167.285 140.184C169.238 139.598 170.41 139.305 170.801 139.305C171.387 139.109 171.875 138.816 172.266 138.426C174.219 138.816 175.586 138.621 176.367 137.84C177.344 136.863 178.711 136.473 180.469 136.668C182.227 137.645 183.301 138.133 183.691 138.133C184.082 137.938 184.57 137.84 185.156 137.84C186.133 138.23 187.109 138.426 188.086 138.426C189.062 138.426 190.137 138.426 191.309 138.426C191.699 138.23 191.992 137.938 192.188 137.547C192.578 137.156 193.262 136.961 194.238 136.961C196.191 137.352 198.145 137.742 200.098 138.133C201.465 137.742 202.734 137.254 203.906 136.668C205.078 135.887 206.543 135.691 208.301 136.082C209.668 137.059 210.84 137.254 211.816 136.668C212.793 136.082 214.258 135.984 216.211 136.375C216.992 136.766 217.676 137.156 218.262 137.547C219.043 137.742 219.727 138.035 220.312 138.426C222.266 139.207 223.047 139.988 222.656 140.77C223.242 141.746 223.535 143.016 223.535 144.578C223.535 146.141 223.633 147.605 223.828 148.973C224.805 149.559 225.488 150.34 225.879 151.316C226.465 152.293 227.051 153.172 227.637 153.953C228.809 156.102 229.004 158.25 228.223 160.398C228.613 161.375 228.809 162.449 228.809 163.621C229.004 164.598 229.492 165.477 230.273 166.258C230.078 167.039 230.176 167.723 230.566 168.309C230.957 168.699 231.348 169.285 231.738 170.066C231.738 171.043 231.641 171.727 231.445 172.117C231.445 172.508 231.445 173.094 231.445 173.875C232.617 175.633 233.301 176.414 233.496 176.219C233.691 176.023 234.082 176.023 234.668 176.219C235.254 178.367 235.352 179.734 234.961 180.32C234.57 180.906 234.18 181.59 233.789 182.371C234.57 184.91 235.254 186.473 235.84 187.059C236.426 187.645 236.719 188.426 236.719 189.402C237.109 189.793 237.5 190.184 237.891 190.574C238.477 190.77 238.867 191.16 239.062 191.746C239.062 194.871 239.16 197.312 239.355 199.07C239.746 200.828 240.43 202.391 241.406 203.758C241.406 205.32 241.602 206.297 241.992 206.688C242.383 207.078 242.773 207.469 243.164 207.859C243.555 209.617 243.945 210.691 244.336 211.082C244.922 211.473 245.215 212.059 245.215 212.84C245.996 214.012 246.875 214.891 247.852 215.477C248.242 217.039 248.633 218.016 249.023 218.406C249.414 218.602 249.707 218.992 249.902 219.578C249.512 221.336 249.609 222.703 250.195 223.68C249.805 224.461 249.609 225.145 249.609 225.73C249.609 226.121 249.707 226.609 249.902 227.195C250.293 227.586 250.586 228.074 250.781 228.66C250.977 229.246 251.074 229.93 251.074 230.711C252.832 231.883 253.809 232.469 254.004 232.469C254.004 233.445 253.809 234.227 253.418 234.812C253.223 235.203 253.027 235.691 252.832 236.277C253.223 238.426 253.516 239.598 253.711 239.793C253.906 239.793 254.102 239.988 254.297 240.379C254.688 242.332 255.176 243.602 255.762 244.188C255.762 246.141 256.152 247.215 256.934 247.41C257.324 247.215 257.617 246.824 257.812 246.238C258.008 245.457 258.105 244.773 258.105 244.188C258.691 242.82 259.18 241.551 259.57 240.379C260.156 239.207 260.938 238.133 261.914 237.156C262.305 236.18 262.598 235.105 262.793 233.934C262.988 232.762 263.281 231.688 263.672 230.711C263.672 228.367 264.062 226.414 264.844 224.852C265.625 223.289 266.406 221.727 267.188 220.164C268.75 218.602 269.434 217.527 269.238 216.941C268.066 213.816 267.676 211.375 268.066 209.617C268.457 207.664 269.238 206.199 270.41 205.223C270.41 203.66 270.703 202.391 271.289 201.414C272.07 200.242 272.754 199.168 273.34 198.191C273.926 196.824 274.414 195.555 274.805 194.383C275.195 193.016 275.586 191.844 275.977 190.867C276.562 187.156 277.246 184.715 278.027 183.543C277.832 182.566 277.734 181.883 277.734 181.492C277.93 180.906 277.93 180.125 277.734 179.148C278.32 177.781 278.906 176.512 279.492 175.34C280.078 174.168 280.371 172.508 280.371 170.359C281.152 168.406 281.445 167.332 281.25 167.137C281.055 166.746 280.957 166.355 280.957 165.965C281.738 164.207 281.934 163.23 281.543 163.035C281.152 162.84 281.152 162.449 281.543 161.863C281.738 161.082 282.031 160.594 282.422 160.398C282.812 160.008 283.203 159.52 283.594 158.934C283.203 158.152 282.812 157.469 282.422 156.883C282.227 156.102 282.324 155.32 282.715 154.539C283.301 153.562 284.082 152.879 285.059 152.488C286.035 152.098 286.816 151.512 287.402 150.73C287.988 148.582 288.477 147.312 288.867 146.922C289.453 146.336 289.941 145.555 290.332 144.578C288.77 142.039 288.379 140.477 289.16 139.891C290.137 139.109 291.113 138.523 292.09 138.133C294.434 139.5 295.898 139.988 296.484 139.598C297.266 139.207 298.047 139.402 298.828 140.184C299.805 139.988 300.586 139.598 301.172 139.012C301.953 138.426 302.93 138.23 304.102 138.426C305.664 139.012 306.543 139.402 306.738 139.598C307.129 139.793 307.52 139.988 307.91 140.184C309.473 139.793 310.84 139.402 312.012 139.012C313.184 138.621 314.551 138.328 316.113 138.133C319.629 138.328 321.777 138.816 322.559 139.598C323.145 139.207 323.926 139.012 324.902 139.012C326.074 139.012 326.855 139.402 327.246 140.184C326.66 142.332 326.074 143.699 325.488 144.285C325.098 144.676 324.707 145.066 324.316 145.457C325.684 147.41 326.465 148.582 326.66 148.973C327.051 149.363 327.344 149.754 327.539 150.145C327.539 151.902 327.734 152.977 328.125 153.367C328.711 153.562 329.199 153.953 329.59 154.539C329.59 155.516 329.297 156.297 328.711 156.883C328.125 157.469 327.832 158.25 327.832 159.227C327.637 161.375 327.539 162.645 327.539 163.035C327.539 163.23 327.344 163.523 326.953 163.914C327.344 164.5 327.734 164.988 328.125 165.379C328.516 165.77 328.906 166.258 329.297 166.844C328.711 168.211 328.516 169.578 328.711 170.945C328.906 172.312 329.004 173.777 329.004 175.34C329.59 176.316 330.176 177.293 330.762 178.27C331.348 179.246 331.738 180.516 331.934 182.078C331.543 183.641 331.543 185.105 331.934 186.473C332.52 187.84 332.715 189.305 332.52 190.867C332.91 191.844 333.594 192.234 334.57 192.039C335.742 191.844 336.621 192.039 337.207 192.625C337.207 193.797 336.816 194.676 336.035 195.262C335.254 195.652 334.57 196.238 333.984 197.02C334.766 198.973 334.863 200.145 334.277 200.535C333.887 200.73 333.594 201.121 333.398 201.707C333.398 202.684 333.594 203.27 333.984 203.465C334.375 203.66 334.668 204.148 334.863 204.93C336.035 206.688 336.523 207.859 336.328 208.445C336.133 209.031 335.938 209.715 335.742 210.496C336.719 213.23 336.914 214.988 336.328 215.77C335.938 216.551 335.547 217.332 335.156 218.113C335.547 220.066 335.938 221.434 336.328 222.215C337.891 224.559 338.281 226.121 337.5 226.902C336.914 227.488 336.426 228.27 336.035 229.246C337.012 231.395 337.305 232.566 336.914 232.762C336.719 232.957 336.523 233.348 336.328 233.934C336.523 234.52 336.816 235.008 337.207 235.398C337.598 235.789 337.793 236.277 337.793 236.863C339.16 236.863 340.039 237.547 340.43 238.914C339.453 241.062 339.258 242.234 339.844 242.43C340.625 242.625 341.113 243.113 341.309 243.895C341.309 245.848 341.699 247.02 342.48 247.41C343.457 247.605 343.945 248.191 343.945 249.168C342.578 250.535 341.992 251.316 342.188 251.512C342.578 251.707 342.773 252.098 342.773 252.684C342.383 255.027 342.09 257.078 341.895 258.836C341.699 260.594 341.113 261.766 340.137 262.352C340.332 263.133 340.527 263.816 340.723 264.402C341.113 264.988 341.309 265.77 341.309 266.746C342.48 269.48 342.871 271.434 342.48 272.605C343.262 272.996 344.043 273.387 344.824 273.777C345.605 273.973 346.191 274.461 346.582 275.242C346.777 276.414 346.484 277.195 345.703 277.586C345.117 277.977 344.531 278.367 343.945 278.758C344.336 281.297 344.336 283.152 343.945 284.324C344.727 286.863 345.02 288.328 344.824 288.719C344.629 289.109 344.727 289.695 345.117 290.477C344.922 293.016 345.02 294.773 345.41 295.75C345.801 296.727 345.703 297.801 345.117 298.973C345.508 300.926 345.605 302 345.41 302.195C345.41 302.391 345.312 302.684 345.117 303.074C345.703 304.051 346.191 305.32 346.582 306.883C346.973 308.25 346.973 309.715 346.582 311.277C346.973 312.059 347.461 312.645 348.047 313.035C348.633 313.23 349.023 313.719 349.219 314.5C349.023 315.281 348.73 315.867 348.34 316.258C347.949 316.648 347.949 317.332 348.34 318.309C348.926 320.652 349.121 322.215 348.926 322.996C348.73 323.582 348.633 324.07 348.633 324.461C348.828 325.047 349.121 325.535 349.512 325.926C349.902 326.316 350.098 326.805 350.098 327.391C349.902 330.516 350.293 332.371 351.27 332.957C352.246 333.348 352.734 334.324 352.734 335.887C352.539 339.207 352.539 341.844 352.734 343.797C352.93 345.75 353.027 347.996 353.027 350.535Z" fill="white"/>
</svg>
