<svg xmlns="http://www.w3.org/2000/svg" viewBox="0 0 1600 1000" width="1600" height="1000" role="img" aria-label="Project screenshot placeholder">
  <defs>
    <linearGradient id="bg" x1="0" y1="0" x2="1" y2="1">
      <stop offset="0" stop-color="#EEF0FF"/>
      <stop offset="1" stop-color="#FFFFFF"/>
    </linearGradient>
    <linearGradient id="accent" x1="0" y1="0" x2="1" y2="0">
      <stop offset="0" stop-color="#4353FF"/>
      <stop offset="1" stop-color="#6B79FF"/>
    </linearGradient>
  </defs>
  <rect width="1600" height="1000" fill="url(#bg)"/>
  <rect x="60" y="60" width="1480" height="88" rx="12" fill="#FFFFFF" stroke="#E5E7EB"/>
  <circle cx="100" cy="104" r="6" fill="#D1D5DB"/>
  <circle cx="120" cy="104" r="6" fill="#D1D5DB"/>
  <circle cx="140" cy="104" r="6" fill="#D1D5DB"/>
  <rect x="200" y="92" width="240" height="24" rx="6" fill="#F7F7F8"/>
  <rect x="60" y="200" width="760" height="36" rx="6" fill="#0B0D13"/>
  <rect x="60" y="260" width="560" height="20" rx="4" fill="#8A90A0"/>
  <rect x="60" y="290" width="620" height="20" rx="4" fill="#8A90A0"/>
  <rect x="60" y="360" width="180" height="48" rx="10" fill="url(#accent)"/>
  <rect x="260" y="360" width="140" height="48" rx="10" fill="#FFFFFF" stroke="#E5E7EB"/>
  <rect x="860" y="200" width="680" height="440" rx="16" fill="#F7F7F8" stroke="#E5E7EB"/>
  <rect x="60" y="720" width="1480" height="220" rx="16" fill="#FFFFFF" stroke="#E5E7EB"/>
  <text x="800" y="980" text-anchor="middle" fill="#8A90A0" font-family="ui-sans-serif, system-ui, sans-serif" font-size="18" font-weight="500">
    Placeholder — real screenshot lands here before launch
  </text>
</svg>
