<svg xmlns="http://www.w3.org/2000/svg" data-name="Layer 1" viewBox="0 0 913.35 172.47"><path d="M304.2 50.9c-3.19-2.22-6.82-3.86-10.9-4.92s-8.39-1.59-12.92-1.59c-6.23 0-11.78.91-16.65 2.71-4.88 1.81-8.88 4.43-12.02 7.86s-5.26 7.55-6.37 12.38l19.91 2.53c.53-1.79 1.44-3.39 2.72-4.81s2.94-2.56 5-3.4c2.05-.84 4.45-1.27 7.2-1.27s5 .42 6.88 1.27c1.88.84 3.32 2.05 4.31 3.62s1.48 3.46 1.48 5.68v.36c0 1.74-.65 3.04-1.95 3.91s-3.38 1.51-6.23 1.92-6.61.86-11.29 1.34c-4.01.39-7.83 1.05-11.48 1.99s-6.89 2.33-9.74 4.16-5.09 4.25-6.73 7.24q-2.46 4.485-2.46 11.22c0 5.26 1.16 9.67 3.48 13.21 2.32 3.55 5.5 6.22 9.56 8 4.05 1.79 8.64 2.68 13.76 2.68 4.01 0 7.5-.53 10.5-1.59 2.99-1.06 5.56-2.55 7.71-4.45a23 23 0 0 0 5.18-6.62h.65v11.15h20.63V71.54c0-4.73-.91-8.8-2.71-12.2-1.81-3.4-4.31-6.21-7.49-8.44Zm-11.22 45.83c0 2.85-.72 5.41-2.17 7.67-1.45 2.27-3.45 4.08-6.01 5.43s-5.55 2.03-8.98 2.03c-2.37 0-4.45-.36-6.26-1.09-1.81-.72-3.23-1.79-4.27-3.19s-1.56-3.11-1.56-5.14.55-3.9 1.67-5.32c1.11-1.42 2.68-2.56 4.71-3.4s4.34-1.46 6.95-1.85c1.3-.19 2.74-.41 4.31-.65s3.12-.51 4.67-.8c1.54-.29 2.93-.63 4.16-1.01 1.23-.39 2.16-.77 2.79-1.16v8.47Zm84.75-38.22h-.58c-1.11-2.32-2.64-4.55-4.6-6.7s-4.43-3.92-7.42-5.32-6.64-2.1-10.93-2.1c-6.08 0-11.61 1.58-16.58 4.74s-8.93 7.8-11.87 13.9c-2.94 6.11-4.42 13.62-4.42 22.55s1.44 16.24 4.31 22.37 6.79 10.81 11.77 14.05c4.97 3.23 10.62 4.85 16.94 4.85 4.2 0 7.78-.69 10.75-2.06 2.97-1.38 5.45-3.14 7.46-5.29 2-2.15 3.56-4.38 4.67-6.7h.8v12.67h21.29V17.6h-21.58v40.91Zm-1.52 39.6c-1.4 3.57-3.4 6.36-6.01 8.36s-5.77 3-9.49 3-6.79-1-9.38-3c-2.58-2-4.54-4.8-5.86-8.4-1.33-3.59-1.99-7.78-1.99-12.56s.66-8.88 1.99-12.45 3.28-6.35 5.86-8.33 5.71-2.97 9.38-2.97 6.89.98 9.52 2.93c2.63 1.96 4.63 4.71 6.01 8.25 1.38 3.55 2.06 7.74 2.06 12.56s-.7 9.03-2.1 12.6Zm78.17-18.9-14.48-2.9c-3.62-.72-6.23-1.77-7.82-3.15s-2.39-3.08-2.39-5.1c0-2.41 1.17-4.38 3.51-5.9q3.51-2.28 8.94-2.28c3.91 0 7.03.9 9.38 2.71 2.34 1.81 3.85 4.14 4.52 6.99l19.33-2.68c-.77-4.58-2.6-8.57-5.47-11.95s-6.67-5.98-11.4-7.82c-4.73-1.83-10.33-2.75-16.8-2.75s-12.66 1.01-17.7 3.04-8.95 4.9-11.73 8.62-4.16 8.11-4.16 13.18c0 6.03 1.93 10.96 5.79 14.77s9.65 6.52 17.38 8.11l13.83 2.75c3.43.72 6 1.75 7.71 3.08s2.57 3.03 2.57 5.1c0 2.41-1.18 4.41-3.55 5.97-2.37 1.57-5.6 2.35-9.7 2.35-4.34 0-7.82-.94-10.43-2.82s-4.37-4.66-5.29-8.33l-20.34 2.75c.82 5.07 2.81 9.41 5.97 13.03s7.26 6.38 12.31 8.29 10.82 2.86 17.34 2.86c7 0 13.19-1.1 18.57-3.29 5.38-2.2 9.59-5.26 12.63-9.2 3.04-3.93 4.56-8.53 4.56-13.79 0-5.74-1.9-10.4-5.68-13.97-3.79-3.57-9.59-6.13-17.41-7.67Zm91.38-30.08q-7.425-4.74-16.62-4.74c-4.3 0-7.94.7-10.93 2.1s-5.46 3.17-7.38 5.32c-1.93 2.15-3.48 4.38-4.63 6.7h-.58V17.6h-21.58v107.88h21.21v-12.67h.87c1.11 2.32 2.65 4.55 4.63 6.7s4.48 3.91 7.49 5.29c3.02 1.38 6.6 2.06 10.75 2.06 6.32 0 11.97-1.62 16.94-4.85s8.89-7.92 11.77-14.05c2.87-6.13 4.31-13.59 4.31-22.37s-1.47-16.45-4.42-22.55c-2.95-6.11-6.89-10.74-11.84-13.9Zm-7.9 48.94c-1.33 3.6-3.27 6.4-5.83 8.4s-5.72 3-9.49 3-6.75-1-9.38-3-4.65-4.79-6.04-8.36q-2.1-5.355-2.1-12.6c0-7.245.69-9.01 2.06-12.56 1.38-3.55 3.38-6.3 6.01-8.25 2.63-1.96 5.78-2.93 9.45-2.93s6.93.99 9.49 2.97 4.5 4.75 5.83 8.33c1.33 3.57 1.99 7.72 1.99 12.45s-.66 8.97-1.99 12.56Z"/><path d="M620.48 45.55 606.51 86.6c-1.64 5.07-3.11 10.18-4.42 15.35q-.615 2.43-1.23 4.92c-.36-1.64-.71-3.27-1.05-4.88-1.09-5.14-2.45-10.27-4.09-15.39l-13.47-41.05h-22.88l30.19 80.08-.94 4.63c-.39 2.51-1.19 4.48-2.43 5.9-1.23 1.42-2.85 2.33-4.85 2.71-2 .39-4.33.29-6.99-.29l-4.2-.58-3.91 16.51c1.74.48 3.85.88 6.33 1.19 2.49.31 5.1.47 7.86.47q7.68 0 13.11-2.46c3.62-1.64 6.67-4.01 9.16-7.09 2.49-3.09 4.55-6.78 6.19-11.08l34.25-90h-22.66Zm26.04 83.84c0 3.14-.71 5.47-2.14 6.99q-2.13 2.28-7.35 2.28h-3.33v17.09h5.36c6.08 0 11.31-.9 15.67-2.71 4.37-1.81 7.71-4.6 10.03-8.36s3.45-8.62 3.4-14.55V45.55h-21.65v83.84ZM657.3 12.75c-3.28 0-6.09 1.09-8.43 3.26s-3.51 4.83-3.51 7.96 1.17 5.79 3.51 7.96 5.18 3.26 8.51 3.26 6.15-1.09 8.47-3.26 3.48-4.83 3.48-7.96-1.16-5.79-3.48-7.96-5.17-3.26-8.54-3.26Zm78.21 36.81c-5.91-3.45-12.88-5.18-20.89-5.18s-15.05 1.73-20.96 5.18-10.47 8.28-13.68 14.48-4.81 13.46-4.81 21.76 1.6 15.41 4.81 21.61 7.77 11.03 13.68 14.48 12.9 5.18 20.96 5.18 14.97-1.73 20.89-5.18c5.91-3.45 10.47-8.28 13.68-14.48S754 94 754 85.8s-1.6-15.55-4.81-21.76-7.77-11.03-13.68-14.48m-5.47 48.73c-1.35 3.64-3.32 6.5-5.9 8.58s-5.76 3.11-9.52 3.11-7.01-1.04-9.59-3.11-4.54-4.93-5.86-8.58c-1.33-3.64-1.99-7.83-1.99-12.56s.66-8.98 1.99-12.6 3.29-6.47 5.9-8.54 5.79-3.11 9.56-3.11 6.94 1.04 9.52 3.11c2.58 2.08 4.55 4.92 5.9 8.54s2.03 7.82 2.03 12.6-.68 8.92-2.03 12.56Zm71.87-53.69c-4.63 0-8.64 1.24-12.02 3.73s-5.79 6.17-7.24 11.04h-.72V45.54h-20.92v79.93h21.58V80.44c0-3.47.72-6.49 2.17-9.05s3.46-4.54 6.05-5.94c2.58-1.4 5.47-2.1 8.65-2.1 1.69 0 3.44.08 5.25.25s3.17.4 4.09.69V45.18c-.92-.19-2-.34-3.26-.43-1.26-.1-2.46-.15-3.62-.15Zm22.41-31.85c-3.28 0-6.09 1.09-8.43 3.26s-3.51 4.83-3.51 7.96 1.17 5.79 3.51 7.96 5.18 3.26 8.51 3.26 6.15-1.09 8.47-3.26 3.48-4.83 3.48-7.96-1.16-5.79-3.48-7.96-5.17-3.26-8.54-3.26Zm-10.71 32.8h21.58v79.93h-21.58zm94.05 41.34c-3.79-3.57-9.59-6.13-17.41-7.67l-14.48-2.9c-3.62-.72-6.23-1.77-7.82-3.15s-2.39-3.08-2.39-5.1c0-2.41 1.17-4.38 3.51-5.9q3.51-2.28 8.94-2.28c3.91 0 7.03.9 9.38 2.71 2.34 1.81 3.85 4.14 4.52 6.99l19.33-2.68c-.77-4.58-2.6-8.57-5.47-11.95s-6.67-5.98-11.4-7.82c-4.73-1.83-10.33-2.75-16.8-2.75s-12.66 1.01-17.7 3.04-8.95 4.9-11.73 8.62-4.16 8.11-4.16 13.18c0 6.03 1.93 10.96 5.79 14.77s9.65 6.52 17.38 8.11l13.83 2.75c3.43.72 6 1.75 7.71 3.08s2.57 3.03 2.57 5.1c0 2.41-1.18 4.41-3.55 5.97-2.37 1.57-5.6 2.35-9.7 2.35-4.34 0-7.82-.94-10.43-2.82s-4.37-4.66-5.29-8.33l-20.34 2.75c.82 5.07 2.81 9.41 5.97 13.03s7.26 6.38 12.31 8.29 10.82 2.86 17.34 2.86c7 0 13.19-1.1 18.57-3.29 5.38-2.2 9.59-5.26 12.63-9.2 3.04-3.93 4.56-8.53 4.56-13.79 0-5.74-1.9-10.4-5.68-13.97Z"/><path d="M131.94 34.29 112.83 0h-47.5L46.22 34.29 4.54 109.05h42.83l41.68-74.76 56.17 100.73H.24l20.88 37.45h137.41l25.21-45.25-17.09-30.65z" style="fill:#25dfd6"/></svg>