<svg width="173" height="33" viewBox="0 0 173 33" fill="none" xmlns="http://www.w3.org/2000/svg">
<path d="M77.3664 24.9964C75.6505 24.9964 74.1029 24.6991 72.7237 24.1046C71.3553 23.5101 70.2259 22.6616 69.3353 21.559C68.4557 20.4457 67.8963 19.1269 67.6574 17.6028L71.73 16.9866C72.0775 18.3702 72.7888 19.4403 73.864 20.197C74.95 20.9537 76.199 21.332 77.6108 21.332C78.447 21.332 79.2344 21.2024 79.9728 20.9429C80.7113 20.6835 81.3087 20.3051 81.7648 19.8079C82.2318 19.3106 82.4653 18.6999 82.4653 17.9756C82.4653 17.6514 82.411 17.3541 82.3024 17.0839C82.1938 16.8028 82.0309 16.5542 81.8137 16.338C81.6073 16.1218 81.3358 15.9273 80.9992 15.7543C80.6734 15.5706 80.2933 15.4138 79.8589 15.2841L73.7989 13.5005C73.2776 13.3493 72.7129 13.1492 72.1047 12.9006C71.5074 12.6412 70.9373 12.2899 70.3943 11.8467C69.8621 11.3927 69.4223 10.8198 69.0748 10.1279C68.738 9.42532 68.5697 8.56058 68.5697 7.53369C68.5697 6.03114 68.9499 4.77181 69.7101 3.75573C70.4811 2.72883 71.5129 1.96134 72.8052 1.4533C74.1085 0.945257 75.5528 0.696649 77.1384 0.707461C78.7457 0.718817 80.1793 0.993904 81.439 1.53438C82.6988 2.06405 83.7522 2.83692 84.5993 3.85303C85.4465 4.86911 86.0438 6.09601 86.3913 7.53369L82.1721 8.26329C81.9984 7.44179 81.6617 6.74457 81.1621 6.17166C80.6734 5.58796 80.0707 5.14476 79.3539 4.84209C78.648 4.53942 77.8932 4.37728 77.0896 4.35566C76.3076 4.34431 75.58 4.46378 74.9066 4.71237C74.2442 4.95017 73.7066 5.29611 73.2939 5.75009C72.8921 6.2041 72.6912 6.73376 72.6912 7.33911C72.6912 7.91197 72.8649 8.38221 73.2125 8.74975C73.56 9.10646 73.989 9.39289 74.4994 9.6091C75.0207 9.81442 75.5474 9.98745 76.0796 10.1279L80.2825 11.2954C80.858 11.4466 81.5042 11.6521 82.221 11.9115C82.9377 12.1709 83.6274 12.5331 84.2899 12.9979C84.9524 13.4627 85.4954 14.0734 85.9189 14.8301C86.3533 15.5868 86.5705 16.5488 86.5705 17.7162C86.5705 18.9269 86.3153 19.9916 85.8048 20.9104C85.3053 21.8185 84.6265 22.5751 83.7685 23.1805C82.9106 23.7858 81.9278 24.2398 80.82 24.5424C79.7232 24.8451 78.5719 24.9964 77.3664 24.9964Z" fill="url(#paint0_linear_4051_616)"/>
<path d="M110.215 4.3395V0.756126H114.141V4.3395H110.215Z" fill="url(#paint1_linear_4051_616)"/>
<path d="M110.215 24.51V6.99857H114.141V24.51H110.215Z" fill="url(#paint2_linear_4051_616)"/>
<path d="M125.912 24.7857C127.03 24.8182 128.171 24.7262 129.333 24.5101V21.2348C128.236 21.397 127.259 21.4401 126.401 21.3645C125.542 21.2889 124.918 20.9267 124.527 20.2782C124.321 19.9431 124.207 19.5107 124.185 18.981C124.174 18.4514 124.169 17.8352 124.169 17.1326V10.0632H129.334V6.99865H124.169V2.13437H120.26V6.99865H117.066V10.0632H120.26V17.3595C120.26 18.3541 120.271 19.2459 120.292 20.035C120.315 20.824 120.525 21.5969 120.928 22.3536C121.384 23.1859 122.051 23.7966 122.931 24.1858C123.811 24.5641 124.804 24.7641 125.912 24.7857Z" fill="url(#paint3_linear_4051_616)"/>
<path fill-rule="evenodd" clip-rule="evenodd" d="M164.969 24.9964C163.253 24.9964 161.814 24.5911 160.652 23.7804C160.58 23.7304 160.51 23.6793 160.44 23.627V32.2929H156.482V6.99862H159.952V8.24974C160.158 8.06372 160.375 7.88994 160.603 7.72829C161.744 6.91755 163.15 6.5122 164.822 6.5122C166.484 6.5122 167.923 6.91755 169.139 7.72829C170.367 8.52815 171.317 9.62536 171.99 11.0198C172.663 12.4034 173 13.9815 173 15.7543C173 17.5055 172.669 19.0783 172.006 20.4727C171.344 21.8671 170.41 22.9697 169.204 23.7804C167.999 24.5911 166.587 24.9964 164.969 24.9964ZM160.391 12.7547C160.098 13.6086 159.952 14.6085 159.952 15.7543C159.952 16.8893 160.098 17.8892 160.391 18.7539C160.696 19.6187 161.168 20.2943 161.809 20.7807C162.46 21.2563 163.313 21.4942 164.366 21.4942C165.387 21.4942 166.228 21.2402 166.891 20.732C167.554 20.224 168.042 19.5376 168.357 18.6728C168.683 17.7973 168.846 16.8245 168.846 15.7543C168.846 14.695 168.683 13.7329 168.357 12.8681C168.031 11.9926 167.526 11.3007 166.842 10.7927C166.158 10.2738 165.289 10.0144 164.236 10.0144C163.236 10.0144 162.422 10.2576 161.792 10.7441C161.162 11.2197 160.696 11.8899 160.391 12.7547Z" fill="url(#paint4_linear_4051_616)"/>
<path d="M146.068 8.2005V15.275C146.068 15.569 146.055 15.9268 146.031 16.3485C145.976 16.9483 145.869 17.4617 145.708 17.8888C145.475 18.5256 145.174 19.011 144.804 19.345C144.433 19.6686 144.037 19.8878 143.613 20.0026C143.19 20.1173 142.794 20.1748 142.424 20.1748C141.503 20.1748 140.789 19.9713 140.281 19.5641C139.784 19.157 139.424 18.6508 139.202 18.0454C138.98 17.4399 138.847 16.8397 138.805 16.2447C138.763 15.6392 138.742 15.1434 138.742 14.7572V11.1515C138.742 8.73261 136.781 6.77167 134.362 6.77167V16.2603C134.362 16.5422 134.382 16.9911 134.425 17.6069C134.467 18.2228 134.589 18.9065 134.79 19.6581C134.991 20.3992 135.324 21.1143 135.79 21.8032C136.196 22.3916 136.738 22.8925 137.415 23.3058C137.997 23.9057 138.993 24.4193 140.427 24.6471C142.106 24.7879 145.674 24.6966 147.032 23.9777C147.875 23.5313 148.534 22.9657 149.008 22.2807C149.471 21.5957 149.804 20.8847 150.004 20.1478C150.204 19.4005 150.325 18.7207 150.367 18.1084C150.409 17.496 150.43 17.0497 150.43 16.7695V8.20043H152.194C152.727 8.20043 152.996 7.55656 152.621 7.177L148.503 3.01059C148.263 2.76831 147.87 2.77337 147.637 3.02196L143.725 7.18837C143.365 7.57206 143.637 8.20065 144.164 8.20065L146.068 8.2005Z" fill="url(#paint5_linear_4051_616)"/>
<path d="M102.563 23.9777C103.406 23.5314 104.064 22.9658 104.539 22.2808C105.002 21.5958 105.334 20.8848 105.534 20.1479C105.734 19.4006 105.856 18.7208 105.898 18.1085C105.94 17.4961 105.961 17.0498 105.961 16.7695V7.33513H105.952V6.77174H101.604V7.33513H101.599V15.275C101.599 15.569 101.585 15.9269 101.562 16.3485C101.507 16.9484 101.4 17.4617 101.239 17.8888C101.006 18.5256 100.705 19.011 100.335 19.345C99.9638 19.6686 99.5672 19.8878 99.1441 20.0026C98.721 20.1173 98.3244 20.1748 97.9542 20.1748C97.0336 20.1748 96.3197 19.9713 95.8119 19.5641C95.3143 19.157 94.9549 18.6508 94.7326 18.0454C94.5102 17.4399 94.378 16.8397 94.3359 16.2447C94.2932 15.6392 94.2721 15.1434 94.2721 14.7572V11.1515C94.2721 8.73261 92.3112 6.77167 89.8924 6.77167V16.2603C89.8924 16.5422 89.9129 16.9911 89.9558 17.6069C89.998 18.2228 90.1198 18.9065 90.3208 19.6581C90.5218 20.3992 90.855 21.1143 91.3205 21.8032C91.7271 22.3916 92.2688 22.8925 92.9458 23.3058C93.5281 23.9057 94.5232 24.4193 95.9577 24.6471C97.6367 24.7879 101.205 24.6967 102.563 23.9777Z" fill="url(#paint6_linear_4051_616)"/>
<path fill-rule="evenodd" clip-rule="evenodd" d="M39.9211 1.36323L32.5508 24.1992H36.5769L38.1725 19.2514H47.3809L48.996 24.1992H53.0221L45.6518 1.36323H39.9211ZM46.216 15.6833L42.7485 5.06119L39.3231 15.6833H46.216Z" fill="url(#paint7_linear_4051_616)"/>
<path d="M56.2817 1.36323V24.1992H60.1942V1.36323H56.2817Z" fill="url(#paint8_linear_4051_616)"/>
<path d="M24.667 10.8889L17.0884 15.2644V2.01901C20.877 3.52726 23.7583 6.83939 24.667 10.8889ZM16.2071 1.70599V10.4574L4.74148 3.8377C6.87113 2.1491 9.56209 1.13927 12.4848 1.13927C13.7807 1.13927 15.0309 1.33779 16.2071 1.70599ZM4.03141 4.44539L11.6035 8.81711L0.132416 15.4399C0.045653 14.847 0 14.2409 0 13.6241C0 9.99794 1.55443 6.72838 4.03141 4.44539ZM0.302566 16.3593L7.8812 11.9838V25.2292C4.09262 23.721 1.21124 20.4088 0.302566 16.3593ZM8.76249 25.5422V16.7908L12.2667 18.8139V18.8139L20.2279 23.4104C18.0983 25.0992 15.4072 26.1089 12.4846 26.1089C11.1887 26.1089 9.93861 25.9104 8.76249 25.5422ZM20.9381 22.8029L13.366 18.4311L24.8372 11.8082C24.924 12.4012 24.9696 13.0074 24.9696 13.6241C24.9696 17.2503 23.4152 20.5199 20.9381 22.8029Z" fill="url(#paint9_linear_4051_616)"/>
<defs>
<linearGradient id="paint0_linear_4051_616" x1="0" y1="16.5" x2="173" y2="16.5" gradientUnits="userSpaceOnUse">
<stop stop-color="#C42BFF"/>
<stop offset="0.9999" stop-color="#FF43A6"/>
</linearGradient>
<linearGradient id="paint1_linear_4051_616" x1="0" y1="16.5" x2="173" y2="16.5" gradientUnits="userSpaceOnUse">
<stop stop-color="#C42BFF"/>
<stop offset="0.9999" stop-color="#FF43A6"/>
</linearGradient>
<linearGradient id="paint2_linear_4051_616" x1="0" y1="16.5" x2="173" y2="16.5" gradientUnits="userSpaceOnUse">
<stop stop-color="#C42BFF"/>
<stop offset="0.9999" stop-color="#FF43A6"/>
</linearGradient>
<linearGradient id="paint3_linear_4051_616" x1="0" y1="16.5" x2="173" y2="16.5" gradientUnits="userSpaceOnUse">
<stop stop-color="#C42BFF"/>
<stop offset="0.9999" stop-color="#FF43A6"/>
</linearGradient>
<linearGradient id="paint4_linear_4051_616" x1="0" y1="16.5" x2="173" y2="16.5" gradientUnits="userSpaceOnUse">
<stop stop-color="#C42BFF"/>
<stop offset="0.9999" stop-color="#FF43A6"/>
</linearGradient>
<linearGradient id="paint5_linear_4051_616" x1="0" y1="16.5" x2="173" y2="16.5" gradientUnits="userSpaceOnUse">
<stop stop-color="#C42BFF"/>
<stop offset="0.9999" stop-color="#FF43A6"/>
</linearGradient>
<linearGradient id="paint6_linear_4051_616" x1="0" y1="16.5" x2="173" y2="16.5" gradientUnits="userSpaceOnUse">
<stop stop-color="#C42BFF"/>
<stop offset="0.9999" stop-color="#FF43A6"/>
</linearGradient>
<linearGradient id="paint7_linear_4051_616" x1="0" y1="16.5" x2="173" y2="16.5" gradientUnits="userSpaceOnUse">
<stop stop-color="#C42BFF"/>
<stop offset="0.9999" stop-color="#FF43A6"/>
</linearGradient>
<linearGradient id="paint8_linear_4051_616" x1="0" y1="16.5" x2="173" y2="16.5" gradientUnits="userSpaceOnUse">
<stop stop-color="#C42BFF"/>
<stop offset="0.9999" stop-color="#FF43A6"/>
</linearGradient>
<linearGradient id="paint9_linear_4051_616" x1="0" y1="16.5" x2="173" y2="16.5" gradientUnits="userSpaceOnUse">
<stop stop-color="#C42BFF"/>
<stop offset="0.9999" stop-color="#FF43A6"/>
</linearGradient>
</defs>
</svg>
