<svg width="75" height="16" viewBox="0 0 75 16" fill="none" xmlns="http://www.w3.org/2000/svg">
<path fill-rule="evenodd" clip-rule="evenodd" d="M12.1877 12.7544C11.9274 12.2043 11.4867 11.7643 10.9358 11.5064C8.6052 10.4134 5.79076 10.7184 3.73082 12.423L3.26694 12.8071L3.65098 12.3432C5.72848 9.83295 5.72848 6.20012 3.65098 3.68987L3.26694 3.22599L3.73082 3.61003C6.24107 5.68753 9.8739 5.68753 12.3841 3.61003L12.848 3.22599L12.464 3.68987C10.7402 5.77376 10.448 8.62972 11.5865 10.9763C11.8316 11.4825 12.242 11.8913 12.749 12.1348C13.7846 12.633 14.9191 12.8526 16.0417 12.7943V3.22519C16.0417 1.46147 14.6117 0.0314941 12.848 0.0314941H3.26694C1.50322 0.0314941 0.0732422 1.46147 0.0732422 3.22519V12.8063C0.0732422 14.57 1.50322 16 3.26694 16H12.8297C12.8856 14.8942 12.6724 13.7772 12.1885 12.7544H12.1877Z" fill="url(#paint0_linear_1246_301)"/>
<path d="M28.6972 3.99685C27.9449 3.36789 26.9554 3.04907 25.754 3.04907C24.5525 3.04907 23.5986 3.32967 22.8359 3.88305C22.0671 4.44077 21.6075 5.15921 21.4711 6.01838L21.452 6.13913L24.1129 6.73508L24.1381 6.60303C24.2154 6.19299 24.397 5.87156 24.6759 5.64656C24.9565 5.4207 25.3257 5.30689 25.7722 5.30689C26.1857 5.30689 26.5263 5.40158 26.7834 5.58749C27.0318 5.76732 27.1517 5.99753 27.1517 6.29116C27.1517 6.5318 27.0753 6.8567 26.4064 6.8984L24.8948 7.04261C22.4432 7.30149 21.1992 8.34917 21.1992 10.157C21.1992 10.9832 21.4859 11.6625 22.0506 12.1776C22.6118 12.6893 23.2955 12.9491 24.0808 12.9491C25.5237 12.9491 26.5532 12.3062 27.1517 11.037C27.1517 11.9937 27.9273 12.7693 28.884 12.7693H29.8404V6.77591C29.8404 5.56664 29.4556 4.63102 28.6963 3.99685H28.6972ZM27.1526 8.75574C27.1526 9.28566 26.9389 9.74261 26.5019 10.1518C26.0676 10.5583 25.5437 10.7642 24.9452 10.7642C24.6177 10.7642 24.3544 10.686 24.1633 10.5323C23.9783 10.3837 23.8879 10.1961 23.8879 9.95979C23.8879 9.7235 23.9731 9.55149 24.1477 9.40294C24.331 9.24657 24.5873 9.14493 24.9052 9.10062L26.4698 8.92079C26.7573 8.88691 26.9832 8.83305 27.1517 8.7566L27.1526 8.75574Z" fill="white"/>
<path d="M43.3842 3.04858C42.6727 3.04858 42.0334 3.28314 41.4843 3.74443C41.0309 4.1258 40.6808 4.62445 40.441 5.22822C40.2221 4.62445 39.8928 4.12754 39.4602 3.74617C38.9346 3.28314 38.2883 3.04858 37.5394 3.04858C36.8384 3.04858 36.2199 3.27706 35.7012 3.72793C35.339 4.04154 35.0419 4.44115 34.8108 4.92069V3.22841H32.1221V12.7679H34.8108V7.44086C34.8108 6.87706 34.9724 6.41056 35.2903 6.05264C35.6091 5.69472 36.0096 5.52098 36.5143 5.52098C36.9452 5.52098 37.2971 5.69386 37.5916 6.04916C37.8878 6.40708 38.0381 6.87532 38.0381 7.44086V12.7679H40.7268V7.44086C40.7268 6.87706 40.8884 6.41056 41.2063 6.05264C41.5252 5.69472 41.9256 5.52098 42.4304 5.52098C42.8726 5.52098 43.2313 5.69386 43.5258 6.04916C43.8221 6.40708 43.9724 6.87532 43.9724 7.44086V12.7679H46.6611V7.00911C46.6611 5.86934 46.3579 4.91548 45.7602 4.17619C45.1556 3.42822 44.3555 3.04858 43.3842 3.04858Z" fill="white"/>
<path fill-rule="evenodd" clip-rule="evenodd" d="M52.7178 3.84434C53.3328 3.31615 54.0721 3.04858 54.9156 3.04858C56.1014 3.04858 57.0979 3.53073 57.8754 4.48111C58.6468 5.42455 59.0377 6.60689 59.0377 7.99859C59.0377 9.39029 58.6468 10.5735 57.8754 11.5161C57.0979 12.4664 56.1023 12.9486 54.9156 12.9486C54.0721 12.9486 53.3328 12.681 52.7178 12.1528C52.2669 11.7663 51.9029 11.2719 51.6292 10.6795V15.9771H48.9414V3.22841H51.6292V5.31857C51.9029 4.72523 52.2669 4.23179 52.7178 3.84434ZM55.6106 9.77166C56.0415 9.30168 56.2596 8.70486 56.2596 7.99859L56.2587 7.99946C56.2587 7.30447 56.0406 6.71461 55.6098 6.24376C55.1763 5.7703 54.6602 5.54009 54.0339 5.54009C53.3424 5.54009 52.7629 5.77465 52.3112 6.23768C51.8586 6.70158 51.6292 7.29405 51.6292 7.99859C51.6292 8.70312 51.8586 9.29907 52.3121 9.76905C52.7638 10.2373 53.3432 10.4753 54.0347 10.4753C54.6611 10.4753 55.1771 10.2451 55.6106 9.77166Z" fill="white"/>
<path fill-rule="evenodd" clip-rule="evenodd" d="M60.749 0V12.7689H63.4377V0H60.749Z" fill="white"/>
<path fill-rule="evenodd" clip-rule="evenodd" d="M69.7601 11.5203L72.2646 3.22827H75.0002L71.1373 15.9771H68.4016L69.3804 12.7686C68.2628 12.7686 67.2762 12.0389 66.9489 10.9703L64.5781 3.22827H67.4797L69.7601 11.5203Z" fill="white"/>
<defs>
<linearGradient id="paint0_linear_1246_301" x1="-5.58361" y1="3.03541" x2="7.09482" y2="25.6917" gradientUnits="userSpaceOnUse">
<stop stop-color="#F95765"/>
<stop offset="0.518041" stop-color="#8650DB"/>
<stop offset="1" stop-color="#309FFF"/>
</linearGradient>
</defs>
</svg>
