<svg width="82" height="31" viewBox="0 0 82 31" fill="none" xmlns="http://www.w3.org/2000/svg">
<g clip-path="url(#clip0_2250_5279)">
<path d="M44.3113 5.73549C43.6207 6.71888 42.8757 7.66172 42.0797 8.55952C40.8061 8.25852 39.4669 8.47643 38.3493 9.16648C37.2318 9.85653 36.4249 10.9639 36.1017 12.251C34.4985 12.2637 33.5014 11.266 33.0597 10.6916C33.4409 9.5876 34.0424 8.57563 34.8272 7.71921C35.6116 6.86279 36.5623 6.18046 37.619 5.71502C38.6754 5.2496 39.8154 5.01116 40.9672 5.01469C42.1191 5.01821 43.2575 5.26363 44.3113 5.73549Z" fill="white"/>
<path d="M47.3863 8.10369C47.1768 8.29546 47.0593 8.42573 47.0593 8.42573L44.9391 10.4556C44.2344 9.50108 43.2219 8.82865 42.0787 8.55597C42.8744 7.65817 43.6194 6.71533 44.3104 5.73193C45.5032 6.2691 46.5561 7.08115 47.3863 8.10369Z" fill="white"/>
<path d="M37.6421 17.3087C36.3676 18.2847 35.3311 18.7433 34.4976 18.8962C33.5825 17.7701 32.9691 16.423 32.7173 14.9854C32.4656 13.5478 32.5838 12.0685 33.0604 10.6909C33.5056 11.2653 34.4992 12.263 36.1024 12.2504C35.8747 13.1558 35.898 14.1074 36.1697 15.0001C36.4416 15.8929 36.9512 16.6918 37.6421 17.3087Z" fill="white"/>
<path d="M49.3003 13.9925C48.3272 14.3182 47.3644 14.8826 46.4508 15.6578C44.7791 17.0879 43.2878 19.2227 42.2573 21.8821C40.8197 22.1143 39.3473 21.9611 37.9863 21.4375C36.6249 20.9139 35.4218 20.0382 34.4965 18.8971C35.3299 18.7442 36.3664 18.2856 37.6406 17.3096C38.3617 17.9554 39.2509 18.3763 40.2015 18.5215C41.1522 18.6668 42.1241 18.5303 43.0001 18.1284C43.8765 17.7265 44.6199 17.0763 45.1411 16.2559C45.6626 15.4355 45.9399 14.4797 45.9396 13.5032V13.4697C45.9339 12.3814 45.5831 11.3239 44.9396 10.4539L47.0598 8.42409C47.0598 8.42409 47.1773 8.29382 47.3868 8.10205C48.6248 9.62014 49.3019 11.53 49.3003 13.5014V13.9925Z" fill="white"/>
<path d="M45.9395 21.9901V20.3031C44.8565 21.1255 43.5929 21.6676 42.2572 21.8825C43.2876 19.2204 44.7793 17.082 46.4543 15.6555C47.3646 14.8803 48.3246 14.3159 49.3041 13.9902V15.6555L49.3111 21.9874L45.9395 21.9901Z" fill="white"/>
<path d="M13.7658 7.0389L11.5136 9.57164C10.588 8.80462 9.42246 8.39994 8.2283 8.43097C7.03415 8.46201 5.8905 8.92672 5.00471 9.7408C4.03576 9.14069 3.12328 8.45122 2.27881 7.68112C3.74598 6.09602 5.75725 5.14498 7.89591 5.02509C10.0345 4.9052 12.1367 5.62561 13.7666 7.03707L13.7658 7.0389Z" fill="white"/>
<path d="M3.3611 13.5024C3.36072 14.7159 3.78888 15.8893 4.56775 16.8095C3.59355 16.5048 2.64554 16.1197 1.7332 15.658C1.13833 15.3595 0.586201 15.0483 0.0910671 14.7471C-0.0951863 13.4777 0.00508305 12.182 0.384295 10.9578C0.763507 9.73361 1.41174 8.613 2.27999 7.68066C3.12462 8.44951 4.03709 9.13773 5.00591 9.73672C4.48735 10.2123 4.07297 10.7933 3.78962 11.4421C3.50624 12.0908 3.36027 12.7927 3.3611 13.5024Z" fill="white"/>
<path d="M59.7314 5.34814V8.76646H58.9601C57.8515 8.76537 56.7772 9.15583 55.9207 9.87093C55.1913 8.67693 54.3588 7.91346 53.5654 7.42864C55.0523 6.08778 56.9716 5.34754 58.9601 5.34814H59.7314Z" fill="white"/>
<path d="M55.9204 9.86656C55.3704 10.3228 54.9278 10.8976 54.6235 11.5492C54.3195 12.2008 54.1619 12.913 54.1626 13.634V14.5386C53.423 14.0753 52.5901 13.7869 51.7259 13.6946C51.4188 13.6648 51.1093 13.6611 50.8015 13.6838V13.634C50.8009 12.459 51.0466 11.2973 51.5225 10.2263C51.9985 9.15537 52.6939 8.19981 53.5623 7.42334C54.3583 7.90909 55.1911 8.67615 55.9204 9.86656Z" fill="white"/>
<path d="M54.1626 14.5389V21.9897H50.8015V13.6841C51.1093 13.6614 51.4188 13.6651 51.7259 13.6949C52.5901 13.7872 53.4229 14.0756 54.1626 14.5389Z" fill="white"/>
<path d="M64.593 0.000488281V9.67112C63.5315 9.21883 62.4149 8.18583 61.2323 6.32427V0.000488281H64.593Z" fill="white"/>
<path d="M64.593 9.67058V16.3643C63.2637 16.4692 62.1548 16.3372 61.2323 16.0649V6.32373C62.4149 8.18619 63.5315 9.2183 64.593 9.67058Z" fill="white"/>
<path d="M64.593 16.3646V21.9873H61.2323V16.0679C62.1548 16.3401 63.2637 16.4722 64.593 16.3646Z" fill="white"/>
<path d="M18.6283 0V1.27452C17.3483 1.92797 16.2065 2.82957 15.2675 3.9285V0H18.6283Z" fill="white"/>
<path d="M30.9985 13.405C29.2148 7.33817 23.714 7.40963 23.714 7.40963C23.6499 7.40963 23.5875 7.40963 23.5252 7.40963C23.5252 7.40963 19.7449 7.10206 15.2709 11.6294V3.92889C16.2092 2.83023 17.35 1.92865 18.6291 1.2749V7.49102C19.7654 6.68178 21.0921 6.19199 22.4748 6.07123C23.8575 5.95047 25.247 6.20307 26.5027 6.8034C27.7584 7.40377 28.8355 8.33053 29.625 9.48983C30.4145 10.6491 30.8884 11.9998 30.9985 13.405Z" fill="white"/>
<path d="M69.4709 5.34814V8.32686C68.4024 9.22146 67.2858 9.89354 66.1102 9.95507V5.34814H69.4709Z" fill="white"/>
<path d="M69.912 14.4316C69.1923 14.917 68.4267 15.3279 67.6269 15.6583C67.3595 15.7686 67.1128 15.8582 66.8931 15.9296C66.8502 15.8392 66.8092 15.7487 66.7701 15.6583C66.3335 14.6433 66.1086 13.5474 66.1102 12.4398V9.95048C67.2858 9.89349 68.3989 9.22141 69.471 8.32227V12.4353C69.4697 13.1258 69.6202 13.8079 69.912 14.4316Z" fill="white"/>
<path d="M82.0001 5.34814V11.0867C80.9036 10.6682 79.7806 10.3246 78.639 10.0582V5.34814H82.0001Z" fill="white"/>
<path d="M81.9997 11.0871V12.4439C81.9997 12.6022 81.9997 12.7578 81.9856 12.9134V18.8527C79.0538 17.8468 76.2373 18.2141 75.6121 18.3045C73.9868 18.4773 72.2014 19.0038 70.4976 19.6614C68.9259 18.8571 67.659 17.5484 66.8938 15.9382C67.1139 15.8659 67.3605 15.7763 67.6276 15.6668C68.4278 15.3365 69.1933 14.9256 69.9127 14.4403C70.3522 15.3854 71.0925 16.1528 72.0134 16.6189C72.9346 17.085 73.9836 17.2228 74.991 17.0099C75.9987 16.7971 76.9064 16.2461 77.5682 15.4455C78.2303 14.6451 78.6076 13.6416 78.64 12.5968C78.64 12.5479 78.64 12.4991 78.64 12.4484V10.0586C79.7812 10.325 80.9036 10.6686 81.9997 11.0871Z" fill="white"/>
<path d="M81.9852 18.8489V22.4888C81.9852 24.629 81.1482 26.6815 79.6585 28.1949C78.1684 29.7082 76.1478 30.5584 74.0408 30.5584C71.9338 30.5584 69.9133 29.7082 68.4232 28.1949C66.9334 26.6815 66.0964 24.629 66.0964 22.4888H69.4572C69.4572 23.7243 69.9405 24.9092 70.8005 25.7829C71.6606 26.6565 72.8272 27.1473 74.0434 27.1473C75.2599 27.1473 76.4265 26.6565 77.2866 25.7829C78.1466 24.9092 78.6296 23.7243 78.6296 22.4888V19.0352C77.4563 19.8764 76.0803 20.3782 74.6481 20.4872C73.2163 20.5962 71.782 20.3082 70.4982 19.6539C72.2019 18.9999 73.9873 18.4735 75.6126 18.2971C76.2369 18.2102 79.0537 17.843 81.9852 18.8489Z" fill="white"/>
<path d="M13.7674 19.9655C12.6915 20.896 11.4007 21.534 10.0158 21.8197C8.63095 22.1055 7.19736 22.0296 5.84926 21.5992C4.50113 21.1688 3.2826 20.398 2.30769 19.3589C1.33278 18.3198 0.633393 17.0464 0.275002 15.658C0.196102 15.3583 0.134844 15.0542 0.0915527 14.7471C0.586688 15.0483 1.13882 15.3595 1.73369 15.658C2.64603 16.1197 3.59404 16.5048 4.56824 16.8095C5.41732 17.8129 6.61865 18.4399 7.91621 18.5566C9.21373 18.6734 10.5049 18.2707 11.5144 17.4345L13.7674 19.9655Z" fill="white"/>
<path d="M31.0227 14.0422V17.4044C29.9374 17.0414 28.8051 16.8433 27.6627 16.8165V14.0422C27.6461 12.8365 27.1628 11.6858 26.3175 10.8391C25.4722 9.99246 24.3327 9.51779 23.1455 9.51779C21.9584 9.51779 20.8189 9.99246 19.9736 10.8391C19.1282 11.6858 18.645 12.8365 18.6283 14.0422V19.9462C17.7797 20.5644 16.9789 21.2475 16.2328 21.9896H15.2675V11.6315C19.7415 7.10424 23.5218 7.40908 23.5218 7.40908C23.5841 7.40908 23.6464 7.40908 23.7106 7.40908C23.7106 7.40908 29.215 7.33762 30.9987 13.4045C31.0156 13.6152 31.0227 13.8314 31.0227 14.0422Z" fill="white"/>
<path d="M18.6297 19.9463V21.9897H16.2341C16.9802 21.2475 17.781 20.5644 18.6297 19.9463Z" fill="white"/>
<path d="M31.0235 17.4049V21.99H27.6636V16.8169C28.806 16.8437 29.9382 17.0418 31.0235 17.4049Z" fill="white"/>
</g>
<defs>
<clipPath id="clip0_2250_5279">
<rect width="82" height="30.75" fill="white"/>
</clipPath>
</defs>
</svg>
