<?xml version="1.0" encoding="UTF-8"?><svg id="Layer_2" xmlns="http://www.w3.org/2000/svg" viewBox="0 0 660 107.63902"><defs><style>.cls-1{fill:#26352e;}.cls-1,.cls-2{stroke-width:0px;}.cls-2{fill:#71d2a7;}</style></defs><g id="Layer_1-2"><path class="cls-1" d="M187.24326,104.58641c-.46896-.46518-.70345-1.01357-.70345-1.63759V27.13937c0-.62402.23448-1.16863.70345-1.63759s1.01357-.69966,1.63759-.69966h5.26449c.62402,0,1.13081.15506,1.52035.46518.38954.3139.82069.74505,1.28965,1.28965.38954.62402.79799,1.10812,1.22536,1.45984s1.03248.52569,1.81534.52569c.5446,0,1.14972-.17397,1.81156-.52569s1.34638-.76017,2.04982-1.22914c1.87207-1.16863,3.81978-2.12168,5.84692-2.86295,2.02713-.74126,4.71989-1.1119,8.07449-1.1119,3.97863,0,7.60553.68075,10.88071,2.04604,3.27518,1.36529,6.0814,3.33569,8.42243,5.90743,2.65116,2.73058,4.6972,6.14191,6.14191,10.23777,1.44093,4.09587,2.16328,8.60018,2.16328,13.51295,0,3.27518-.33281,6.37639-.99466,9.29985-.66184,2.92346-1.59977,5.61622-2.80622,8.07071-1.21023,2.45828-2.71167,4.58374-4.50432,6.37639-2.34104,2.65494-5.14725,4.64425-8.42243,5.96794-3.27518,1.32369-6.90208,1.98931-10.88071,1.98931-3.19954,0-5.75237-.3139-7.66226-.93793-1.91367-.62402-3.80465-1.47875-5.67673-2.57173-.69966-.38954-1.3426-.72235-1.9288-.99466s-1.1535-.40845-1.6981-.40845c-.77908,0-1.3426.21557-1.69432.64293s-.52569,1.07408-.52569,1.9288v19.06866c0,.62402-.23448,1.17241-.70345,1.63759-.46896.46896-1.01357.70345-1.63759.70345h-7.37105c-.62402,0-1.16863-.23448-1.63759-.70345ZM223.04332,72.65151c2.18219-1.01357,4.05426-2.41667,5.61622-4.21311,1.32369-1.71323,2.35616-3.76305,3.09743-6.14191.74126-2.37885,1.1119-4.97328,1.1119-7.7795,0-2.73058-.37063-5.30231-1.1119-7.72277-.74126-2.41667-1.77374-4.48163-3.09743-6.19864-1.56195-1.79643-3.43402-3.19954-5.61622-4.21311-2.18597-1.01357-4.68207-1.52035-7.48829-1.52035s-5.32122.50678-7.54502,1.52035c-2.22379,1.01357-4.07696,2.41667-5.55949,4.21311-1.40311,1.79265-2.4734,3.8576-3.21467,6.19864s-1.1119,4.91277-1.1119,7.72277c0,2.80622.37063,5.40064,1.1119,7.7795s1.81156,4.42868,3.21467,6.14191c1.48253,1.79643,3.33569,3.19954,5.55949,4.21311,2.22379,1.01357,4.7388,1.52035,7.54502,1.52035s5.30231-.50678,7.48829-1.52035Z"/><path class="cls-1" d="M260.88943,83.52844c-.51057-.46518-.76396-1.00978-.76396-1.63759V27.13937c0-.62402.25339-1.16863.76396-1.63759.503-.46896,1.0703-.69966,1.69432-.69966h5.03001c.70345,0,1.26696.17397,1.6981.52569.42736.35172.71857.95684.87742,1.81156.31012,1.40311.64293,2.43937.99466,3.10121s.91524.99466,1.69432.99466c.46896,0,.95684-.17397,1.46362-.52569s1.0703-.76017,1.69432-1.22914c1.64137-1.40311,3.37351-2.53392,5.20776-3.39242,1.83047-.85851,4.30766-1.28587,7.42778-1.28587h6.20242c.62402,0,1.16863.2307,1.63759.69966.46896.46896.69966,1.01357.69966,1.63759v7.95725c0,.62402-.2307,1.16863-.69966,1.63759s-1.01357.69966-1.63759.69966h-6.78484c-4.52701,0-8.30897,1.34638-11.34967,4.03914-3.0407,2.68898-4.56105,6.88317-4.56105,12.57503v27.84281c0,.62781-.23448,1.17241-.70345,1.63759-.46896.46896-1.01357.70345-1.63759.70345h-7.25381c-.62402,0-1.19132-.23448-1.69432-.70345Z"/><path class="cls-1" d="M316.04936,82.24257c-4.36817-2.65116-7.66226-6.3537-9.88605-11.11519-2.22001-4.75393-3.33191-10.2945-3.33191-16.61038,0-6.24024,1.1119-11.75812,3.33191-16.55365,2.22379-4.79931,5.49897-8.52076,9.82932-11.1757,4.32657-2.64737,9.49273-3.97484,15.50227-3.97484,5.69185,0,10.66135,1.14972,14.91606,3.44915,4.24714,2.30322,7.50341,5.61622,9.76881,9.94656,2.26161,4.32657,3.39242,9.41709,3.39242,15.26779v4.09208c0,.93793-.27608,1.6981-.82069,2.28052-.5446.5862-1.24805.87742-2.10655.87742h-39.54042c-.39332,0-.70345.10211-.93793.29499s-.35172.45005-.35172.76017c.15884,3.3546.95684,6.24024,2.40155,8.65691,1.44093,2.41667,3.33191,4.23202,5.67294,5.43846,2.34104,1.21023,4.95059,1.81534,7.83623,1.81534,3.19954,0,5.91121-.62402,8.13122-1.87207,2.22379-1.24805,3.95972-3.0407,5.20776-5.38173.46896-.77908.91524-1.34638,1.34638-1.6981.42736-.34794.95305-.52569,1.57708-.52569h7.72277c.69966,0,1.28587.27608,1.75483.82069s.5862,1.24805.35172,2.10655c-1.48253,4.99219-4.50432,9.08428-9.06915,12.28382-4.56105,3.19576-10.23399,4.79553-17.02262,4.79553-6.0814,0-11.30807-1.32747-15.67624-3.97863ZM346.7589,48.37509c.19666-.19288.29499-.48787.29499-.87742,0-2.57552-.60511-4.97328-1.81534-7.19708-1.21023-2.22001-3.00288-3.99375-5.38173-5.32122-2.37885-1.32747-5.20398-1.98931-8.47916-1.98931-4.52701,0-8.19173,1.40311-10.99795,4.21311-2.81,2.80622-4.33035,6.24024-4.56483,10.2945,0,.38954.13615.68454.41223.87742.2723.19288.56351.29121.87742.29121h28.8942c.3139,0,.56729-.09833.76017-.29121Z"/><path class="cls-1" d="M390.63346,81.89085c-2.7684-1.55817-4.83713-3.72145-6.20242-6.49363-1.36529-2.76462-2.04604-5.98307-2.04604-9.65157v-28.19454c0-.77908-.38954-1.16863-1.16863-1.16863h-11.93209c-.62781,0-1.17241-.23448-1.64137-.70345-.46518-.46518-.69966-1.00978-.69966-1.63759v-6.90208c0-.62402.23448-1.16863.69966-1.63759.46896-.46896,1.01357-.69966,1.64137-.69966h11.93209c.38954,0,.68075-.11724.87742-.35172.19288-.23448.29121-.50678.29121-.82069V6.55036c0-.62402.23448-1.16863.70345-1.63759.46518-.46896,1.01357-.70345,1.63759-.70345h7.48829c.62024,0,1.16863.23448,1.63759.70345.46518.46896.69966,1.01357.69966,1.63759v17.07935c0,.78287.38954,1.17241,1.17241,1.17241h16.49314c.62402,0,1.17241.2307,1.63759.69966.46896.46896.70345,1.01357.70345,1.63759v6.90208c0,.62781-.23448,1.17241-.70345,1.63759-.46518.46896-1.01357.70345-1.63759.70345h-16.49314c-.3139,0-.5862.09833-.82069.29121-.23448.19666-.35172.48787-.35172.87742v26.79143c0,2.57552.68454,4.52701,2.04982,5.8507,1.36151,1.32747,3.29409,1.98931,5.79019,1.98931h9.82554c.62402,0,1.17241.23448,1.63759.69966.46896.46896.70345,1.01735.70345,1.63759v7.37105c0,.62781-.23448,1.17241-.70345,1.63759-.46518.46896-1.01357.70345-1.63759.70345h-11.34589c-4.05805,0-7.46938-.77908-10.23777-2.34104Z"/><path class="cls-1" d="M433.39233,83.64568c-3.27518-1.71323-5.77128-4.07317-7.48451-7.07605-1.71701-3.00288-2.57552-6.33479-2.57552-10.00329,0-3.74414.79799-7.00041,2.39776-9.76881,1.59977-2.7684,3.99754-4.93168,7.19708-6.49363,3.19576-1.55817,7.17438-2.34104,11.93209-2.34104h18.13451c.38954,0,.68075-.11346.87742-.34794.19288-.23448.29121-.50678.29121-.82069v-2.57173c0-3.3546-1.13081-5.98685-3.39242-7.89674-2.2654-1.91367-5.49897-2.86673-9.71208-2.86673-3.81978,0-6.9399.69966-9.35658,2.10277-2.42046,1.40689-3.74414,3.19954-3.97863,5.38173-.07942.78287-.35172,1.30856-.82069,1.58086-.46518.27608-1.09299.40845-1.87207.40845h-6.90208c-.93414,0-1.57708-.19288-1.9288-.58242s-.48787-.97575-.40845-1.75483c.07564-3.43402,1.20645-6.51254,3.39242-9.24312,2.18219-2.73058,5.16616-4.83713,8.94812-6.31966,3.78196-1.47875,8.01398-2.22001,12.69227-2.22001,5.30609,0,9.78772.79799,13.45622,2.39776,3.66472,1.59977,6.50876,3.99754,8.53967,7.19329,2.02713,3.19954,3.0407,7.21599,3.0407,12.04933v37.43765c0,.62781-.23448,1.17241-.69966,1.63759-.46896.46896-1.01735.70345-1.63759.70345h-5.14725c-.70345,0-1.25183-.13615-1.64137-.40845s-.8169-.76017-1.28587-1.46362c-.46896-.62402-.87742-1.08921-1.22914-1.40311-.34794-.31012-.95305-.46896-1.81156-.46896-.46896,0-1.05517.15884-1.75483.46896-.70345.3139-1.36529.69966-1.98931,1.16863-2.03091,1.24805-4.01644,2.2427-5.96794,2.98397-1.94771.74126-4.44381,1.1119-7.48451,1.1119-4.60265,0-8.54345-.85851-11.81863-2.57552ZM456.20513,74.11135c2.41667-1.05139,4.34926-2.55283,5.79397-4.50432,1.44093-1.94771,2.16328-4.32657,2.16328-7.13656v-3.15794c0-.5446-.09833-.91524-.29121-1.1119-.19666-.19288-.48787-.29121-.87742-.29121h-17.31761c-3.27518,0-5.72967.69966-7.37105,2.10655-1.63759,1.40311-2.45449,3.43024-2.45449,6.0814,0,3.12012,1.0703,5.49897,3.21845,7.13656,2.14437,1.63759,5.20398,2.45828,9.18261,2.45828,2.88564,0,5.53679-.52569,7.95347-1.58086Z"/><path class="cls-1" d="M495.51486,83.52844c-.46896-.46518-.70345-1.00978-.70345-1.63759V2.33725c0-.62402.23448-1.16863.70345-1.63759s1.01357-.69966,1.63759-.69966h7.37105c.62402,0,1.16863.2307,1.63759.69966.46896.46896.70345,1.01357.70345,1.63759v79.5536c0,.62781-.23448,1.17241-.70345,1.63759-.46896.46896-1.01357.70345-1.63759.70345h-7.37105c-.62402,0-1.16863-.23448-1.63759-.70345ZM530.55475,83.70619c-.5862-.35172-1.1535-.79799-1.6981-1.34638l-19.7721-22.46108c-.38954-.38954-.85851-.50678-1.40311-.35172-.5446.15884-.8169.50678-.8169,1.05139l-3.39242-.58242v-12.98726l3.39242-.46896c0,.46896.2723.80178.8169.99466.5446.19666.97575.13615,1.28587-.17397l20.24107-20.94073c.5446-.62402,1.09299-1.05517,1.63759-1.28965.5446-.2307,1.13081-.34794,1.75483-.34794h8.07449c1.16863,0,1.9288.48787,2.28052,1.45984.35172.97575.13615,1.85316-.64293,2.63225l-21.9959,22.93004c-.5446.46896-.8169.93793-.8169,1.40689,0,.46518.2307.93414.69966,1.40311l22.69556,25.50178c.77908.78287.97575,1.66028.5862,2.63225-.38954.97575-1.13081,1.46362-2.22379,1.46362h-8.65691c-.77908,0-1.46362-.17397-2.04604-.52569Z"/><path class="cls-1" d="M564.24447,83.9974c-4.01644-1.47875-7.15547-3.68363-9.41709-6.61087-2.26161-2.92346-3.47184-6.53145-3.6269-10.8202-.07942-.62402.11724-1.14972.5862-1.58086.46518-.42736,1.08921-.64293,1.87207-.64293h7.48451c.70345,0,1.26696.21557,1.6981.64293.42736.43114.71857.95684.87742,1.58086.23448,2.18597.97575,3.97863,2.22379,5.38173,1.24427,1.40311,2.94237,2.45828,5.08674,3.15794,2.14437.70345,4.6972,1.05517,7.66226,1.05517,4.36817,0,7.70386-.77908,10.00329-2.34104,2.29943-1.55817,3.45293-3.6269,3.45293-6.20242,0-1.94771-.56729-3.50966-1.6981-4.67829s-3.25627-1.98931-6.37639-2.45828l-13.3352-2.10277c-6.00576-.85851-10.41174-2.73058-13.22174-5.61622-2.80622-2.88564-4.20932-6.6676-4.20932-11.34967,0-3.74414,1.05139-7.01932,3.15794-9.82554,2.10655-2.81,5.04892-4.97328,8.83088-6.49363,3.78575-1.52035,8.17282-2.28052,13.16501-2.28052,4.75393,0,8.96703.69966,12.63176,2.10655,3.6685,1.40311,6.57305,3.44915,8.71743,6.14191,2.14437,2.68898,3.33569,5.86961,3.56639,9.53433.07942.77908-.11346,1.3842-.58242,1.81156-.46896.43114-1.09299.64293-1.87207.64293h-7.13656c-.62402,0-1.1535-.21179-1.58086-.64293-.42736-.42736-.76017-1.03248-.99466-1.81156-.46518-2.4961-1.79265-4.38708-3.97484-5.67673-2.18597-1.28587-5.14725-1.9288-8.8914-1.9288-3.97863,0-7.04202.70345-9.18639,2.10655-2.14437,1.40311-3.21467,3.27518-3.21467,5.61622,0,2.10277.71857,3.70254,2.16328,4.79553,1.44093,1.09299,4.07317,1.87207,7.89674,2.34104l11.58037,1.86829c6.16082.86229,10.5479,2.71167,13.16123,5.55949,2.61334,2.84782,3.9219,6.61087,3.9219,11.28916,0,3.8992-.99466,7.33323-2.98397,10.2945-1.98931,2.96506-4.95437,5.26449-8.8914,6.90208-3.94081,1.63759-8.67582,2.45828-14.2164,2.45828-5.53679,0-10.31341-.74126-14.32986-2.22379Z"/><path class="cls-1" d="M636.0753,81.89085c-2.7684-1.55817-4.83713-3.72145-6.20242-6.49363-1.36529-2.76462-2.04604-5.98307-2.04604-9.65157v-28.19454c0-.77908-.38954-1.16863-1.16863-1.16863h-11.93209c-.62781,0-1.17241-.23448-1.64137-.70345-.46518-.46518-.69966-1.00978-.69966-1.63759v-6.90208c0-.62402.23448-1.16863.69966-1.63759.46896-.46896,1.01357-.69966,1.64137-.69966h11.93209c.38954,0,.68075-.11724.87742-.35172.19288-.23448.29121-.50678.29121-.82069V6.55036c0-.62402.23448-1.16863.70345-1.63759.46518-.46896,1.01357-.70345,1.63759-.70345h7.48829c.62024,0,1.16863.23448,1.63759.70345.46518.46896.69966,1.01357.69966,1.63759v17.07935c0,.78287.38954,1.17241,1.17241,1.17241h16.49314c.62402,0,1.17241.2307,1.63759.69966.46896.46896.70345,1.01357.70345,1.63759v6.90208c0,.62781-.23448,1.17241-.70345,1.63759-.46518.46896-1.01357.70345-1.63759.70345h-16.49314c-.3139,0-.5862.09833-.82069.29121-.23448.19666-.35172.48787-.35172.87742v26.79143c0,2.57552.68454,4.52701,2.04982,5.8507,1.36151,1.32747,3.29409,1.98931,5.79019,1.98931h9.82554c.62402,0,1.17241.23448,1.63759.69966.46896.46896.70345,1.01735.70345,1.63759v7.37105c0,.62781-.23448,1.17241-.70345,1.63759-.46518.46896-1.01357.70345-1.63759.70345h-11.34589c-4.05805,0-7.46938-.77908-10.23777-2.34104Z"/><rect class="cls-2" x="47.24622" y="1.33503" width="11.81155" height="106.30399" rx="1.96713" ry="1.96713"/><rect class="cls-2" x="23.62311" y="24.95814" width="11.81155" height="59.05777" rx="1.96713" ry="1.96713"/><rect class="cls-2" y="48.58125" width="11.81155" height="11.81155" rx="1.96713" ry="1.96713"/><rect class="cls-2" x="70.86932" y="1.33503" width="11.81155" height="11.81155" rx="1.96713" ry="1.96713"/><rect class="cls-2" x="70.86932" y="95.82747" width="11.81155" height="11.81155" rx="1.96713" ry="1.96713"/><rect class="cls-2" x="70.86932" y="24.95814" width="35.43466" height="11.81155" rx="1.96713" ry="1.96713"/><rect class="cls-2" x="70.86932" y="72.20436" width="35.43466" height="11.81155" rx="1.96713" ry="1.96713"/><rect class="cls-2" x="70.86932" y="48.58125" width="59.05777" height="11.81155" rx="1.96713" ry="1.96713"/></g></svg>