<svg width="122" height="32" viewBox="0 0 122 32" fill="none" xmlns="http://www.w3.org/2000/svg">
<g clip-path="url(#clip0_2369_116)">
<path d="M53.4332 25.2863V8.83794H48.8275V13.1022C48.7038 13.1351 48.7176 13.1314 48.5939 13.1643C46.8101 10.1508 43.7322 8.1876 39.616 8.1876C32.8336 8.1876 27.334 13.5187 27.334 20.0938C27.334 26.669 32.8336 32 39.616 32C44.0785 32 47.3213 29.6922 49.0151 26.2403C49.0156 26.2393 49.016 26.2383 49.0165 26.2373C49.7345 29.1694 52.4313 31.3497 55.6508 31.3497H56.5037V26.8473H55.03C54.1481 26.8473 53.4332 26.1484 53.4332 25.2863ZM40.312 27.6044C35.6108 27.6044 31.7982 24.241 31.7982 20.0938C31.7982 15.9467 35.6108 12.5832 40.312 12.5832C45.0149 12.5832 48.8275 15.9466 48.8275 20.0938C48.8275 24.241 45.0149 27.6044 40.312 27.6044Z" fill="#0BA5EC"/>
<path d="M27.0508 2.83482L12.3227 27.5212V9.50496C12.3227 5.8211 9.26773 2.83482 5.49933 2.83482H0V7.33716H6.12017C7.00201 7.33716 7.71691 8.03602 7.71691 8.89812V31.3497H15.3557L32.3679 2.83482H27.0508Z" fill="#0BA5EC"/>
<path d="M82.9141 25.2863V0H78.3084V13.1022C78.3084 13.2276 78.139 13.2728 78.0747 13.1643C76.291 10.1508 73.213 8.18759 69.0969 8.18759C62.3145 8.18759 56.8148 13.5187 56.8148 20.0938C56.8148 26.669 62.3145 32 69.0969 32C73.5593 32 76.8021 29.6922 78.496 26.2403C78.4965 26.2393 78.4969 26.2383 78.4973 26.2373C79.2153 29.1694 81.9122 31.3497 85.1316 31.3497H85.9845V26.8473H84.5109C83.629 26.8473 82.9141 26.1484 82.9141 25.2863ZM69.7928 27.6044C65.0915 27.6044 61.279 24.241 61.279 20.0938C61.279 15.9467 65.0915 12.5832 69.7928 12.5832C74.4958 12.5832 78.3084 15.9466 78.3084 20.0938C78.3084 24.241 74.4958 27.6044 69.7928 27.6044Z" fill="#0BA5EC"/>
<path d="M108.843 8.18759C102.06 8.18759 96.2496 13.5187 96.2496 20.0938C96.2496 26.669 102.06 32 108.843 32C115.625 32 121.436 26.6689 121.436 20.0938C121.436 13.5188 115.625 8.18759 108.843 8.18759ZM108.532 27.5344C104.24 27.536 100.233 24.256 100.233 20.0938C100.233 15.9333 104.238 12.6532 108.532 12.6532C112.824 12.6516 116.83 15.9316 116.83 20.0938C116.83 24.2543 112.824 27.5344 108.532 27.5344Z" fill="#0BA5EC"/>
<path d="M93.2091 8.83794H88.6034V31.3497H93.2091V8.83794Z" fill="#0BA5EC"/>
</g>
<defs>
<clipPath id="clip0_2369_116">
<rect width="121.436" height="32" fill="white"/>
</clipPath>
</defs>
</svg>
